<?xml version='1.0' encoding='utf-8'?>
<svg xmlns="http://www.w3.org/2000/svg" width="720" height="360" viewBox="0 0 720 360">
  <rect x="0" y="0" width="720" height="360" fill="#FFFFFF" />
  <text x="360.0" y="24.0" text-anchor="middle" font-family="&quot;Segoe UI&quot;, Arial, sans-serif" font-size="14" font-weight="bold" fill="#333333">AccessControlBenchmarks.Promotion_SharedToExclusive (ThreadCount=2)</text>
  <line x1="80" y1="280.0" x2="690" y2="280.0" stroke="#E0E0E0" stroke-width="1" />
  <line x1="80" y1="240.0" x2="690" y2="240.0" stroke="#E0E0E0" stroke-width="1" />
  <line x1="80" y1="200.0" x2="690" y2="200.0" stroke="#E0E0E0" stroke-width="1" />
  <line x1="80" y1="160.0" x2="690" y2="160.0" stroke="#E0E0E0" stroke-width="1" />
  <line x1="80" y1="120.0" x2="690" y2="120.0" stroke="#E0E0E0" stroke-width="1" />
  <line x1="80" y1="80.0" x2="690" y2="80.0" stroke="#E0E0E0" stroke-width="1" />
  <line x1="80" y1="40.0" x2="690" y2="40.0" stroke="#E0E0E0" stroke-width="1" />
  <text x="72" y="284.0" text-anchor="end" font-family="&quot;Segoe UI&quot;, Arial, sans-serif" font-size="11" fill="#666666">43.80</text>
  <text x="72" y="244.0" text-anchor="end" font-family="&quot;Segoe UI&quot;, Arial, sans-serif" font-size="11" fill="#666666">43.90</text>
  <text x="72" y="204.0" text-anchor="end" font-family="&quot;Segoe UI&quot;, Arial, sans-serif" font-size="11" fill="#666666">44.00</text>
  <text x="72" y="164.0" text-anchor="end" font-family="&quot;Segoe UI&quot;, Arial, sans-serif" font-size="11" fill="#666666">44.10</text>
  <text x="72" y="124.0" text-anchor="end" font-family="&quot;Segoe UI&quot;, Arial, sans-serif" font-size="11" fill="#666666">44.20</text>
  <text x="72" y="84.0" text-anchor="end" font-family="&quot;Segoe UI&quot;, Arial, sans-serif" font-size="11" fill="#666666">44.30</text>
  <text x="72" y="44.0" text-anchor="end" font-family="&quot;Segoe UI&quot;, Arial, sans-serif" font-size="11" fill="#666666">44.40</text>
  <text x="72" y="32" text-anchor="end" font-family="&quot;Segoe UI&quot;, Arial, sans-serif" font-size="11" fill="#999999">(ns)</text>
  <polyline points="80.0,248.9 385.0,105.3 690.0,151.0" fill="none" stroke="#4A90D9" stroke-width="2" />
  <line x1="80.0" y1="243.5" x2="80.0" y2="254.2" stroke="#4A90D9" stroke-width="1" stroke-opacity="0.5" />
  <circle cx="80.0" cy="248.9" r="4" fill="#4A90D9" />
  <line x1="385.0" y1="62.0" x2="385.0" y2="148.6" stroke="#4A90D9" stroke-width="1" stroke-opacity="0.5" />
  <circle cx="385.0" cy="105.3" r="4" fill="#4A90D9" />
  <line x1="690.0" y1="96.3" x2="690.0" y2="205.6" stroke="#4A90D9" stroke-width="1" stroke-opacity="0.5" />
  <circle cx="690.0" cy="151.0" r="4" fill="#4A90D9" />
  <text x="80.0" y="294.0" text-anchor="end" font-family="&quot;Segoe UI&quot;, Arial, sans-serif" font-size="10" fill="#666666" transform="rotate(-45, 80.0, 294.0)">d49948b</text>
  <text x="385.0" y="294.0" text-anchor="end" font-family="&quot;Segoe UI&quot;, Arial, sans-serif" font-size="10" fill="#666666" transform="rotate(-45, 385.0, 294.0)">c3de71a</text>
  <text x="690.0" y="294.0" text-anchor="end" font-family="&quot;Segoe UI&quot;, Arial, sans-serif" font-size="10" fill="#666666" transform="rotate(-45, 690.0, 294.0)">2a3e303</text>
  <line x1="80" y1="40" x2="80" y2="280" stroke="#333333" stroke-width="1" />
  <line x1="80" y1="280" x2="690" y2="280" stroke="#333333" stroke-width="1" />
</svg>