<?xml version='1.0' encoding='utf-8'?>
<svg xmlns="http://www.w3.org/2000/svg" width="720" height="360" viewBox="0 0 720 360">
  <rect x="0" y="0" width="720" height="360" fill="#FFFFFF" />
  <text x="360.0" y="24.0" text-anchor="middle" font-family="&quot;Segoe UI&quot;, Arial, sans-serif" font-size="14" font-weight="bold" fill="#333333">AccessControlBenchmarks.Promotion_SharedToExclusive (ThreadCount=8)</text>
  <line x1="80" y1="280.0" x2="690" y2="280.0" stroke="#E0E0E0" stroke-width="1" />
  <line x1="80" y1="232.0" x2="690" y2="232.0" stroke="#E0E0E0" stroke-width="1" />
  <line x1="80" y1="184.0" x2="690" y2="184.0" stroke="#E0E0E0" stroke-width="1" />
  <line x1="80" y1="136.0" x2="690" y2="136.0" stroke="#E0E0E0" stroke-width="1" />
  <line x1="80" y1="88.0" x2="690" y2="88.0" stroke="#E0E0E0" stroke-width="1" />
  <line x1="80" y1="40.0" x2="690" y2="40.0" stroke="#E0E0E0" stroke-width="1" />
  <text x="72" y="284.0" text-anchor="end" font-family="&quot;Segoe UI&quot;, Arial, sans-serif" font-size="11" fill="#666666">10.00</text>
  <text x="72" y="236.0" text-anchor="end" font-family="&quot;Segoe UI&quot;, Arial, sans-serif" font-size="11" fill="#666666">20.00</text>
  <text x="72" y="188.0" text-anchor="end" font-family="&quot;Segoe UI&quot;, Arial, sans-serif" font-size="11" fill="#666666">30.00</text>
  <text x="72" y="140.0" text-anchor="end" font-family="&quot;Segoe UI&quot;, Arial, sans-serif" font-size="11" fill="#666666">40.00</text>
  <text x="72" y="92.0" text-anchor="end" font-family="&quot;Segoe UI&quot;, Arial, sans-serif" font-size="11" fill="#666666">50.00</text>
  <text x="72" y="44.0" text-anchor="end" font-family="&quot;Segoe UI&quot;, Arial, sans-serif" font-size="11" fill="#666666">60.00</text>
  <text x="72" y="32" text-anchor="end" font-family="&quot;Segoe UI&quot;, Arial, sans-serif" font-size="11" fill="#999999">(ns)</text>
  <polyline points="80.0,250.0 110.5,258.0 141.0,248.7 171.5,251.9 202.0,250.2 232.5,256.0 263.0,250.3 293.5,248.8 324.0,249.5 354.5,251.8 385.0,252.1 415.5,246.9 446.0,249.0 476.5,258.4 507.0,248.8 537.5,248.2 568.0,255.1 598.5,249.5 629.0,255.2 659.5,254.0 690.0,66.0" fill="none" stroke="#4A90D9" stroke-width="2" />
  <line x1="80.0" y1="249.2" x2="80.0" y2="250.9" stroke="#4A90D9" stroke-width="1" stroke-opacity="0.5" />
  <circle cx="80.0" cy="250.0" r="4" fill="#4A90D9" />
  <line x1="110.5" y1="256.0" x2="110.5" y2="260.0" stroke="#4A90D9" stroke-width="1" stroke-opacity="0.5" />
  <circle cx="110.5" cy="258.0" r="4" fill="#4A90D9" />
  <line x1="141.0" y1="246.4" x2="141.0" y2="250.9" stroke="#4A90D9" stroke-width="1" stroke-opacity="0.5" />
  <circle cx="141.0" cy="248.7" r="4" fill="#4A90D9" />
  <line x1="171.5" y1="250.2" x2="171.5" y2="253.6" stroke="#4A90D9" stroke-width="1" stroke-opacity="0.5" />
  <circle cx="171.5" cy="251.9" r="4" fill="#4A90D9" />
  <line x1="202.0" y1="249.6" x2="202.0" y2="250.8" stroke="#4A90D9" stroke-width="1" stroke-opacity="0.5" />
  <circle cx="202.0" cy="250.2" r="4" fill="#4A90D9" />
  <line x1="232.5" y1="255.3" x2="232.5" y2="256.8" stroke="#4A90D9" stroke-width="1" stroke-opacity="0.5" />
  <circle cx="232.5" cy="256.0" r="4" fill="#4A90D9" />
  <line x1="263.0" y1="248.7" x2="263.0" y2="251.8" stroke="#4A90D9" stroke-width="1" stroke-opacity="0.5" />
  <circle cx="263.0" cy="250.3" r="4" fill="#4A90D9" />
  <line x1="293.5" y1="248.5" x2="293.5" y2="249.2" stroke="#4A90D9" stroke-width="1" stroke-opacity="0.5" />
  <circle cx="293.5" cy="248.8" r="4" fill="#4A90D9" />
  <line x1="324.0" y1="249.3" x2="324.0" y2="249.8" stroke="#4A90D9" stroke-width="1" stroke-opacity="0.5" />
  <circle cx="324.0" cy="249.5" r="4" fill="#4A90D9" />
  <line x1="354.5" y1="250.1" x2="354.5" y2="253.6" stroke="#4A90D9" stroke-width="1" stroke-opacity="0.5" />
  <circle cx="354.5" cy="251.8" r="4" fill="#4A90D9" />
  <line x1="385.0" y1="251.6" x2="385.0" y2="252.6" stroke="#4A90D9" stroke-width="1" stroke-opacity="0.5" />
  <circle cx="385.0" cy="252.1" r="4" fill="#4A90D9" />
  <line x1="415.5" y1="245.6" x2="415.5" y2="248.2" stroke="#4A90D9" stroke-width="1" stroke-opacity="0.5" />
  <circle cx="415.5" cy="246.9" r="4" fill="#4A90D9" />
  <line x1="446.0" y1="248.0" x2="446.0" y2="250.1" stroke="#4A90D9" stroke-width="1" stroke-opacity="0.5" />
  <circle cx="446.0" cy="249.0" r="4" fill="#4A90D9" />
  <line x1="476.5" y1="256.9" x2="476.5" y2="259.9" stroke="#4A90D9" stroke-width="1" stroke-opacity="0.5" />
  <circle cx="476.5" cy="258.4" r="4" fill="#4A90D9" />
  <line x1="507.0" y1="247.7" x2="507.0" y2="249.9" stroke="#4A90D9" stroke-width="1" stroke-opacity="0.5" />
  <circle cx="507.0" cy="248.8" r="4" fill="#4A90D9" />
  <line x1="537.5" y1="246.0" x2="537.5" y2="250.4" stroke="#4A90D9" stroke-width="1" stroke-opacity="0.5" />
  <circle cx="537.5" cy="248.2" r="4" fill="#4A90D9" />
  <line x1="568.0" y1="254.6" x2="568.0" y2="255.6" stroke="#4A90D9" stroke-width="1" stroke-opacity="0.5" />
  <circle cx="568.0" cy="255.1" r="4" fill="#4A90D9" />
  <line x1="598.5" y1="248.6" x2="598.5" y2="250.5" stroke="#4A90D9" stroke-width="1" stroke-opacity="0.5" />
  <circle cx="598.5" cy="249.5" r="4" fill="#4A90D9" />
  <line x1="629.0" y1="254.9" x2="629.0" y2="255.5" stroke="#4A90D9" stroke-width="1" stroke-opacity="0.5" />
  <circle cx="629.0" cy="255.2" r="4" fill="#4A90D9" />
  <line x1="659.5" y1="253.4" x2="659.5" y2="254.6" stroke="#4A90D9" stroke-width="1" stroke-opacity="0.5" />
  <circle cx="659.5" cy="254.0" r="4" fill="#4A90D9" />
  <line x1="690.0" y1="65.9" x2="690.0" y2="66.2" stroke="#4A90D9" stroke-width="1" stroke-opacity="0.5" />
  <circle cx="690.0" cy="66.0" r="4" fill="#D94A4A" />
  <text x="80.0" y="294.0" text-anchor="end" font-family="&quot;Segoe UI&quot;, Arial, sans-serif" font-size="10" fill="#666666" transform="rotate(-45, 80.0, 294.0)">c77a77f</text>
  <text x="110.5" y="294.0" text-anchor="end" font-family="&quot;Segoe UI&quot;, Arial, sans-serif" font-size="10" fill="#666666" transform="rotate(-45, 110.5, 294.0)">46740b7</text>
  <text x="141.0" y="294.0" text-anchor="end" font-family="&quot;Segoe UI&quot;, Arial, sans-serif" font-size="10" fill="#666666" transform="rotate(-45, 141.0, 294.0)">25e56da</text>
  <text x="171.5" y="294.0" text-anchor="end" font-family="&quot;Segoe UI&quot;, Arial, sans-serif" font-size="10" fill="#666666" transform="rotate(-45, 171.5, 294.0)">56e6b73</text>
  <text x="202.0" y="294.0" text-anchor="end" font-family="&quot;Segoe UI&quot;, Arial, sans-serif" font-size="10" fill="#666666" transform="rotate(-45, 202.0, 294.0)">efff82c</text>
  <text x="232.5" y="294.0" text-anchor="end" font-family="&quot;Segoe UI&quot;, Arial, sans-serif" font-size="10" fill="#666666" transform="rotate(-45, 232.5, 294.0)">a6ee02e</text>
  <text x="263.0" y="294.0" text-anchor="end" font-family="&quot;Segoe UI&quot;, Arial, sans-serif" font-size="10" fill="#666666" transform="rotate(-45, 263.0, 294.0)">daca6e7</text>
  <text x="293.5" y="294.0" text-anchor="end" font-family="&quot;Segoe UI&quot;, Arial, sans-serif" font-size="10" fill="#666666" transform="rotate(-45, 293.5, 294.0)">de6a661</text>
  <text x="324.0" y="294.0" text-anchor="end" font-family="&quot;Segoe UI&quot;, Arial, sans-serif" font-size="10" fill="#666666" transform="rotate(-45, 324.0, 294.0)">c1e754d</text>
  <text x="354.5" y="294.0" text-anchor="end" font-family="&quot;Segoe UI&quot;, Arial, sans-serif" font-size="10" fill="#666666" transform="rotate(-45, 354.5, 294.0)">3d7678e</text>
  <text x="385.0" y="294.0" text-anchor="end" font-family="&quot;Segoe UI&quot;, Arial, sans-serif" font-size="10" fill="#666666" transform="rotate(-45, 385.0, 294.0)">28c1510</text>
  <text x="415.5" y="294.0" text-anchor="end" font-family="&quot;Segoe UI&quot;, Arial, sans-serif" font-size="10" fill="#666666" transform="rotate(-45, 415.5, 294.0)">8f4c3fb</text>
  <text x="446.0" y="294.0" text-anchor="end" font-family="&quot;Segoe UI&quot;, Arial, sans-serif" font-size="10" fill="#666666" transform="rotate(-45, 446.0, 294.0)">949195e</text>
  <text x="476.5" y="294.0" text-anchor="end" font-family="&quot;Segoe UI&quot;, Arial, sans-serif" font-size="10" fill="#666666" transform="rotate(-45, 476.5, 294.0)">eaf2f3d</text>
  <text x="507.0" y="294.0" text-anchor="end" font-family="&quot;Segoe UI&quot;, Arial, sans-serif" font-size="10" fill="#666666" transform="rotate(-45, 507.0, 294.0)">3b941bb</text>
  <text x="537.5" y="294.0" text-anchor="end" font-family="&quot;Segoe UI&quot;, Arial, sans-serif" font-size="10" fill="#666666" transform="rotate(-45, 537.5, 294.0)">e4d8090</text>
  <text x="568.0" y="294.0" text-anchor="end" font-family="&quot;Segoe UI&quot;, Arial, sans-serif" font-size="10" fill="#666666" transform="rotate(-45, 568.0, 294.0)">5358aa1</text>
  <text x="598.5" y="294.0" text-anchor="end" font-family="&quot;Segoe UI&quot;, Arial, sans-serif" font-size="10" fill="#666666" transform="rotate(-45, 598.5, 294.0)">14bd129</text>
  <text x="629.0" y="294.0" text-anchor="end" font-family="&quot;Segoe UI&quot;, Arial, sans-serif" font-size="10" fill="#666666" transform="rotate(-45, 629.0, 294.0)">4c584e1</text>
  <text x="659.5" y="294.0" text-anchor="end" font-family="&quot;Segoe UI&quot;, Arial, sans-serif" font-size="10" fill="#666666" transform="rotate(-45, 659.5, 294.0)">4c584e1</text>
  <text x="690.0" y="294.0" text-anchor="end" font-family="&quot;Segoe UI&quot;, Arial, sans-serif" font-size="10" fill="#666666" transform="rotate(-45, 690.0, 294.0)">cb6caaf</text>
  <line x1="80" y1="40" x2="80" y2="280" stroke="#333333" stroke-width="1" />
  <line x1="80" y1="280" x2="690" y2="280" stroke="#333333" stroke-width="1" />
</svg>