<?xml version='1.0' encoding='utf-8'?>
<svg xmlns="http://www.w3.org/2000/svg" width="720" height="360" viewBox="0 0 720 360">
  <rect x="0" y="0" width="720" height="360" fill="#FFFFFF" />
  <text x="360.0" y="24.0" text-anchor="middle" font-family="&quot;Segoe UI&quot;, Arial, sans-serif" font-size="14" font-weight="bold" fill="#333333">BTreeMicroBenchmarks.Insert</text>
  <line x1="80" y1="280.0" x2="690" y2="280.0" stroke="#E0E0E0" stroke-width="1" />
  <line x1="80" y1="240.0" x2="690" y2="240.0" stroke="#E0E0E0" stroke-width="1" />
  <line x1="80" y1="200.0" x2="690" y2="200.0" stroke="#E0E0E0" stroke-width="1" />
  <line x1="80" y1="160.0" x2="690" y2="160.0" stroke="#E0E0E0" stroke-width="1" />
  <line x1="80" y1="120.0" x2="690" y2="120.0" stroke="#E0E0E0" stroke-width="1" />
  <line x1="80" y1="80.0" x2="690" y2="80.0" stroke="#E0E0E0" stroke-width="1" />
  <line x1="80" y1="40.0" x2="690" y2="40.0" stroke="#E0E0E0" stroke-width="1" />
  <text x="72" y="284.0" text-anchor="end" font-family="&quot;Segoe UI&quot;, Arial, sans-serif" font-size="11" fill="#666666">650.00</text>
  <text x="72" y="244.0" text-anchor="end" font-family="&quot;Segoe UI&quot;, Arial, sans-serif" font-size="11" fill="#666666">700.00</text>
  <text x="72" y="204.0" text-anchor="end" font-family="&quot;Segoe UI&quot;, Arial, sans-serif" font-size="11" fill="#666666">750.00</text>
  <text x="72" y="164.0" text-anchor="end" font-family="&quot;Segoe UI&quot;, Arial, sans-serif" font-size="11" fill="#666666">800.00</text>
  <text x="72" y="124.0" text-anchor="end" font-family="&quot;Segoe UI&quot;, Arial, sans-serif" font-size="11" fill="#666666">850.00</text>
  <text x="72" y="84.0" text-anchor="end" font-family="&quot;Segoe UI&quot;, Arial, sans-serif" font-size="11" fill="#666666">900.00</text>
  <text x="72" y="44.0" text-anchor="end" font-family="&quot;Segoe UI&quot;, Arial, sans-serif" font-size="11" fill="#666666">950.00</text>
  <text x="72" y="32" text-anchor="end" font-family="&quot;Segoe UI&quot;, Arial, sans-serif" font-size="11" fill="#999999">(ns)</text>
  <polyline points="80.0,157.2 156.2,126.0 232.5,228.6 308.8,153.4 385.0,81.6 461.2,189.7 537.5,187.2 613.8,79.3 690.0,213.4" fill="none" stroke="#4A90D9" stroke-width="2" />
  <line x1="80.0" y1="115.9" x2="80.0" y2="198.4" stroke="#4A90D9" stroke-width="1" stroke-opacity="0.5" />
  <circle cx="80.0" cy="157.2" r="4" fill="#4A90D9" />
  <line x1="156.2" y1="110.6" x2="156.2" y2="141.3" stroke="#4A90D9" stroke-width="1" stroke-opacity="0.5" />
  <circle cx="156.2" cy="126.0" r="4" fill="#4A90D9" />
  <line x1="232.5" y1="189.2" x2="232.5" y2="267.9" stroke="#4A90D9" stroke-width="1" stroke-opacity="0.5" />
  <circle cx="232.5" cy="228.6" r="4" fill="#4A90D9" />
  <line x1="308.8" y1="128.4" x2="308.8" y2="178.4" stroke="#4A90D9" stroke-width="1" stroke-opacity="0.5" />
  <circle cx="308.8" cy="153.4" r="4" fill="#4A90D9" />
  <line x1="385.0" y1="60.8" x2="385.0" y2="102.3" stroke="#4A90D9" stroke-width="1" stroke-opacity="0.5" />
  <circle cx="385.0" cy="81.6" r="4" fill="#4A90D9" />
  <line x1="461.2" y1="165.7" x2="461.2" y2="213.6" stroke="#4A90D9" stroke-width="1" stroke-opacity="0.5" />
  <circle cx="461.2" cy="189.7" r="4" fill="#4A90D9" />
  <line x1="537.5" y1="167.6" x2="537.5" y2="206.8" stroke="#4A90D9" stroke-width="1" stroke-opacity="0.5" />
  <circle cx="537.5" cy="187.2" r="4" fill="#4A90D9" />
  <line x1="613.8" y1="55.2" x2="613.8" y2="103.4" stroke="#4A90D9" stroke-width="1" stroke-opacity="0.5" />
  <circle cx="613.8" cy="79.3" r="4" fill="#4A90D9" />
  <line x1="690.0" y1="205.0" x2="690.0" y2="221.8" stroke="#4A90D9" stroke-width="1" stroke-opacity="0.5" />
  <circle cx="690.0" cy="213.4" r="4" fill="#4A90D9" />
  <text x="80.0" y="294.0" text-anchor="end" font-family="&quot;Segoe UI&quot;, Arial, sans-serif" font-size="10" fill="#666666" transform="rotate(-45, 80.0, 294.0)">c77a77f</text>
  <text x="156.2" y="294.0" text-anchor="end" font-family="&quot;Segoe UI&quot;, Arial, sans-serif" font-size="10" fill="#666666" transform="rotate(-45, 156.2, 294.0)">46740b7</text>
  <text x="232.5" y="294.0" text-anchor="end" font-family="&quot;Segoe UI&quot;, Arial, sans-serif" font-size="10" fill="#666666" transform="rotate(-45, 232.5, 294.0)">25e56da</text>
  <text x="308.8" y="294.0" text-anchor="end" font-family="&quot;Segoe UI&quot;, Arial, sans-serif" font-size="10" fill="#666666" transform="rotate(-45, 308.8, 294.0)">56e6b73</text>
  <text x="385.0" y="294.0" text-anchor="end" font-family="&quot;Segoe UI&quot;, Arial, sans-serif" font-size="10" fill="#666666" transform="rotate(-45, 385.0, 294.0)">efff82c</text>
  <text x="461.2" y="294.0" text-anchor="end" font-family="&quot;Segoe UI&quot;, Arial, sans-serif" font-size="10" fill="#666666" transform="rotate(-45, 461.2, 294.0)">a6ee02e</text>
  <text x="537.5" y="294.0" text-anchor="end" font-family="&quot;Segoe UI&quot;, Arial, sans-serif" font-size="10" fill="#666666" transform="rotate(-45, 537.5, 294.0)">daca6e7</text>
  <text x="613.8" y="294.0" text-anchor="end" font-family="&quot;Segoe UI&quot;, Arial, sans-serif" font-size="10" fill="#666666" transform="rotate(-45, 613.8, 294.0)">de6a661</text>
  <text x="690.0" y="294.0" text-anchor="end" font-family="&quot;Segoe UI&quot;, Arial, sans-serif" font-size="10" fill="#666666" transform="rotate(-45, 690.0, 294.0)">c1e754d</text>
  <line x1="80" y1="40" x2="80" y2="280" stroke="#333333" stroke-width="1" />
  <line x1="80" y1="280" x2="690" y2="280" stroke="#333333" stroke-width="1" />
</svg>