<?xml version='1.0' encoding='utf-8'?>
<svg xmlns="http://www.w3.org/2000/svg" width="720" height="360" viewBox="0 0 720 360">
  <rect x="0" y="0" width="720" height="360" fill="#FFFFFF" />
  <text x="360.0" y="24.0" text-anchor="middle" font-family="&quot;Segoe UI&quot;, Arial, sans-serif" font-size="14" font-weight="bold" fill="#333333">ChangeSetBenchmarks.CreateChangeSet</text>
  <line x1="80" y1="280.0" x2="690" y2="280.0" stroke="#E0E0E0" stroke-width="1" />
  <line x1="80" y1="232.0" x2="690" y2="232.0" stroke="#E0E0E0" stroke-width="1" />
  <line x1="80" y1="184.0" x2="690" y2="184.0" stroke="#E0E0E0" stroke-width="1" />
  <line x1="80" y1="136.0" x2="690" y2="136.0" stroke="#E0E0E0" stroke-width="1" />
  <line x1="80" y1="88.00000000000003" x2="690" y2="88.00000000000003" stroke="#E0E0E0" stroke-width="1" />
  <line x1="80" y1="40.0" x2="690" y2="40.0" stroke="#E0E0E0" stroke-width="1" />
  <text x="72" y="284.0" text-anchor="end" font-family="&quot;Segoe UI&quot;, Arial, sans-serif" font-size="11" fill="#666666">0.00</text>
  <text x="72" y="236.0" text-anchor="end" font-family="&quot;Segoe UI&quot;, Arial, sans-serif" font-size="11" fill="#666666">0.01</text>
  <text x="72" y="188.0" text-anchor="end" font-family="&quot;Segoe UI&quot;, Arial, sans-serif" font-size="11" fill="#666666">0.01</text>
  <text x="72" y="140.0" text-anchor="end" font-family="&quot;Segoe UI&quot;, Arial, sans-serif" font-size="11" fill="#666666">0.01</text>
  <text x="72" y="92.00000000000003" text-anchor="end" font-family="&quot;Segoe UI&quot;, Arial, sans-serif" font-size="11" fill="#666666">0.02</text>
  <text x="72" y="44.0" text-anchor="end" font-family="&quot;Segoe UI&quot;, Arial, sans-serif" font-size="11" fill="#666666">0.03</text>
  <text x="72" y="32" text-anchor="end" font-family="&quot;Segoe UI&quot;, Arial, sans-serif" font-size="11" fill="#999999">(ns)</text>
  <polyline points="80.0,168.2 156.2,182.5 232.5,260.1 308.8,248.8 385.0,210.3 461.2,174.9 537.5,250.8 613.8,187.3 690.0,152.4" fill="none" stroke="#4A90D9" stroke-width="2" />
  <line x1="80.0" y1="90.2" x2="80.0" y2="246.1" stroke="#4A90D9" stroke-width="1" stroke-opacity="0.5" />
  <circle cx="80.0" cy="168.2" r="4" fill="#4A90D9" />
  <line x1="156.2" y1="104.9" x2="156.2" y2="260.0" stroke="#4A90D9" stroke-width="1" stroke-opacity="0.5" />
  <circle cx="156.2" cy="182.5" r="4" fill="#4A90D9" />
  <line x1="232.5" y1="232.8" x2="232.5" y2="287.5" stroke="#4A90D9" stroke-width="1" stroke-opacity="0.5" />
  <circle cx="232.5" cy="260.1" r="4" fill="#4A90D9" />
  <line x1="308.8" y1="187.4" x2="308.8" y2="310.3" stroke="#4A90D9" stroke-width="1" stroke-opacity="0.5" />
  <circle cx="308.8" cy="248.8" r="4" fill="#4A90D9" />
  <line x1="385.0" y1="160.0" x2="385.0" y2="260.7" stroke="#4A90D9" stroke-width="1" stroke-opacity="0.5" />
  <circle cx="385.0" cy="210.3" r="4" fill="#4A90D9" />
  <line x1="461.2" y1="78.9" x2="461.2" y2="271.0" stroke="#4A90D9" stroke-width="1" stroke-opacity="0.5" />
  <circle cx="461.2" cy="174.9" r="4" fill="#4A90D9" />
  <line x1="537.5" y1="210.0" x2="537.5" y2="291.7" stroke="#4A90D9" stroke-width="1" stroke-opacity="0.5" />
  <circle cx="537.5" cy="250.8" r="4" fill="#4A90D9" />
  <line x1="613.8" y1="91.4" x2="613.8" y2="283.2" stroke="#4A90D9" stroke-width="1" stroke-opacity="0.5" />
  <circle cx="613.8" cy="187.3" r="4" fill="#4A90D9" />
  <line x1="690.0" y1="94.2" x2="690.0" y2="210.5" stroke="#4A90D9" stroke-width="1" stroke-opacity="0.5" />
  <circle cx="690.0" cy="152.4" r="4" fill="#4A90D9" />
  <text x="80.0" y="294.0" text-anchor="end" font-family="&quot;Segoe UI&quot;, Arial, sans-serif" font-size="10" fill="#666666" transform="rotate(-45, 80.0, 294.0)">c77a77f</text>
  <text x="156.2" y="294.0" text-anchor="end" font-family="&quot;Segoe UI&quot;, Arial, sans-serif" font-size="10" fill="#666666" transform="rotate(-45, 156.2, 294.0)">46740b7</text>
  <text x="232.5" y="294.0" text-anchor="end" font-family="&quot;Segoe UI&quot;, Arial, sans-serif" font-size="10" fill="#666666" transform="rotate(-45, 232.5, 294.0)">25e56da</text>
  <text x="308.8" y="294.0" text-anchor="end" font-family="&quot;Segoe UI&quot;, Arial, sans-serif" font-size="10" fill="#666666" transform="rotate(-45, 308.8, 294.0)">56e6b73</text>
  <text x="385.0" y="294.0" text-anchor="end" font-family="&quot;Segoe UI&quot;, Arial, sans-serif" font-size="10" fill="#666666" transform="rotate(-45, 385.0, 294.0)">efff82c</text>
  <text x="461.2" y="294.0" text-anchor="end" font-family="&quot;Segoe UI&quot;, Arial, sans-serif" font-size="10" fill="#666666" transform="rotate(-45, 461.2, 294.0)">a6ee02e</text>
  <text x="537.5" y="294.0" text-anchor="end" font-family="&quot;Segoe UI&quot;, Arial, sans-serif" font-size="10" fill="#666666" transform="rotate(-45, 537.5, 294.0)">daca6e7</text>
  <text x="613.8" y="294.0" text-anchor="end" font-family="&quot;Segoe UI&quot;, Arial, sans-serif" font-size="10" fill="#666666" transform="rotate(-45, 613.8, 294.0)">de6a661</text>
  <text x="690.0" y="294.0" text-anchor="end" font-family="&quot;Segoe UI&quot;, Arial, sans-serif" font-size="10" fill="#666666" transform="rotate(-45, 690.0, 294.0)">c1e754d</text>
  <line x1="80" y1="40" x2="80" y2="280" stroke="#333333" stroke-width="1" />
  <line x1="80" y1="280" x2="690" y2="280" stroke="#333333" stroke-width="1" />
</svg>