<?xml version='1.0' encoding='utf-8'?>
<svg xmlns="http://www.w3.org/2000/svg" width="720" height="360" viewBox="0 0 720 360">
  <rect x="0" y="0" width="720" height="360" fill="#FFFFFF" />
  <text x="360.0" y="24.0" text-anchor="middle" font-family="&quot;Segoe UI&quot;, Arial, sans-serif" font-size="14" font-weight="bold" fill="#333333">ChunkAccessorBenchmarks.MRU_Hit</text>
  <line x1="80" y1="280.0" x2="690" y2="280.0" stroke="#E0E0E0" stroke-width="1" />
  <line x1="80" y1="245.71428571428572" x2="690" y2="245.71428571428572" stroke="#E0E0E0" stroke-width="1" />
  <line x1="80" y1="211.42857142857144" x2="690" y2="211.42857142857144" stroke="#E0E0E0" stroke-width="1" />
  <line x1="80" y1="177.14285714285717" x2="690" y2="177.14285714285717" stroke="#E0E0E0" stroke-width="1" />
  <line x1="80" y1="142.85714285714286" x2="690" y2="142.85714285714286" stroke="#E0E0E0" stroke-width="1" />
  <line x1="80" y1="108.57142857142856" x2="690" y2="108.57142857142856" stroke="#E0E0E0" stroke-width="1" />
  <line x1="80" y1="74.2857142857143" x2="690" y2="74.2857142857143" stroke="#E0E0E0" stroke-width="1" />
  <line x1="80" y1="40.0" x2="690" y2="40.0" stroke="#E0E0E0" stroke-width="1" />
  <text x="72" y="284.0" text-anchor="end" font-family="&quot;Segoe UI&quot;, Arial, sans-serif" font-size="11" fill="#666666">0.50</text>
  <text x="72" y="249.71428571428572" text-anchor="end" font-family="&quot;Segoe UI&quot;, Arial, sans-serif" font-size="11" fill="#666666">1.00</text>
  <text x="72" y="215.42857142857144" text-anchor="end" font-family="&quot;Segoe UI&quot;, Arial, sans-serif" font-size="11" fill="#666666">1.50</text>
  <text x="72" y="181.14285714285717" text-anchor="end" font-family="&quot;Segoe UI&quot;, Arial, sans-serif" font-size="11" fill="#666666">2.00</text>
  <text x="72" y="146.85714285714286" text-anchor="end" font-family="&quot;Segoe UI&quot;, Arial, sans-serif" font-size="11" fill="#666666">2.50</text>
  <text x="72" y="112.57142857142856" text-anchor="end" font-family="&quot;Segoe UI&quot;, Arial, sans-serif" font-size="11" fill="#666666">3.00</text>
  <text x="72" y="78.2857142857143" text-anchor="end" font-family="&quot;Segoe UI&quot;, Arial, sans-serif" font-size="11" fill="#666666">3.50</text>
  <text x="72" y="44.0" text-anchor="end" font-family="&quot;Segoe UI&quot;, Arial, sans-serif" font-size="11" fill="#666666">4.00</text>
  <text x="72" y="32" text-anchor="end" font-family="&quot;Segoe UI&quot;, Arial, sans-serif" font-size="11" fill="#999999">(ns)</text>
  <line x1="80" y1="177.1" x2="690" y2="177.1" stroke="#FFA500" stroke-width="1.5" stroke-dasharray="6,4" />
  <text x="686" y="173.1" text-anchor="end" font-family="&quot;Segoe UI&quot;, Arial, sans-serif" font-size="10" fill="#FFA500">target: 2.00 ns</text>
  <polyline points="80.0,234.6 110.5,249.3 141.0,258.2 171.5,235.3 202.0,228.8 232.5,247.4 263.0,260.4 293.5,245.6 324.0,259.0 354.5,258.6 385.0,245.3 415.5,240.6 446.0,237.6 476.5,238.2 507.0,247.6 537.5,238.8 568.0,231.9 598.5,240.1 629.0,234.2 659.5,234.9 690.0,50.0" fill="none" stroke="#4A90D9" stroke-width="2" />
  <line x1="80.0" y1="230.6" x2="80.0" y2="238.6" stroke="#4A90D9" stroke-width="1" stroke-opacity="0.5" />
  <circle cx="80.0" cy="234.6" r="4" fill="#4A90D9" />
  <line x1="110.5" y1="248.0" x2="110.5" y2="250.6" stroke="#4A90D9" stroke-width="1" stroke-opacity="0.5" />
  <circle cx="110.5" cy="249.3" r="4" fill="#4A90D9" />
  <line x1="141.0" y1="256.5" x2="141.0" y2="259.8" stroke="#4A90D9" stroke-width="1" stroke-opacity="0.5" />
  <circle cx="141.0" cy="258.2" r="4" fill="#4A90D9" />
  <line x1="171.5" y1="233.5" x2="171.5" y2="237.2" stroke="#4A90D9" stroke-width="1" stroke-opacity="0.5" />
  <circle cx="171.5" cy="235.3" r="4" fill="#4A90D9" />
  <line x1="202.0" y1="224.8" x2="202.0" y2="232.8" stroke="#4A90D9" stroke-width="1" stroke-opacity="0.5" />
  <circle cx="202.0" cy="228.8" r="4" fill="#4A90D9" />
  <line x1="232.5" y1="246.9" x2="232.5" y2="247.9" stroke="#4A90D9" stroke-width="1" stroke-opacity="0.5" />
  <circle cx="232.5" cy="247.4" r="4" fill="#4A90D9" />
  <line x1="263.0" y1="260.1" x2="263.0" y2="260.6" stroke="#4A90D9" stroke-width="1" stroke-opacity="0.5" />
  <circle cx="263.0" cy="260.4" r="4" fill="#4A90D9" />
  <line x1="293.5" y1="242.5" x2="293.5" y2="248.8" stroke="#4A90D9" stroke-width="1" stroke-opacity="0.5" />
  <circle cx="293.5" cy="245.6" r="4" fill="#4A90D9" />
  <line x1="324.0" y1="258.7" x2="324.0" y2="259.3" stroke="#4A90D9" stroke-width="1" stroke-opacity="0.5" />
  <circle cx="324.0" cy="259.0" r="4" fill="#4A90D9" />
  <line x1="354.5" y1="257.7" x2="354.5" y2="259.6" stroke="#4A90D9" stroke-width="1" stroke-opacity="0.5" />
  <circle cx="354.5" cy="258.6" r="4" fill="#4A90D9" />
  <line x1="385.0" y1="244.5" x2="385.0" y2="246.1" stroke="#4A90D9" stroke-width="1" stroke-opacity="0.5" />
  <circle cx="385.0" cy="245.3" r="4" fill="#4A90D9" />
  <line x1="415.5" y1="229.6" x2="415.5" y2="251.6" stroke="#4A90D9" stroke-width="1" stroke-opacity="0.5" />
  <circle cx="415.5" cy="240.6" r="4" fill="#4A90D9" />
  <line x1="446.0" y1="235.2" x2="446.0" y2="240.1" stroke="#4A90D9" stroke-width="1" stroke-opacity="0.5" />
  <circle cx="446.0" cy="237.6" r="4" fill="#4A90D9" />
  <line x1="476.5" y1="233.6" x2="476.5" y2="242.9" stroke="#4A90D9" stroke-width="1" stroke-opacity="0.5" />
  <circle cx="476.5" cy="238.2" r="4" fill="#4A90D9" />
  <line x1="507.0" y1="246.3" x2="507.0" y2="248.8" stroke="#4A90D9" stroke-width="1" stroke-opacity="0.5" />
  <circle cx="507.0" cy="247.6" r="4" fill="#4A90D9" />
  <line x1="537.5" y1="236.2" x2="537.5" y2="241.5" stroke="#4A90D9" stroke-width="1" stroke-opacity="0.5" />
  <circle cx="537.5" cy="238.8" r="4" fill="#4A90D9" />
  <line x1="568.0" y1="224.8" x2="568.0" y2="239.0" stroke="#4A90D9" stroke-width="1" stroke-opacity="0.5" />
  <circle cx="568.0" cy="231.9" r="4" fill="#4A90D9" />
  <line x1="598.5" y1="238.2" x2="598.5" y2="242.0" stroke="#4A90D9" stroke-width="1" stroke-opacity="0.5" />
  <circle cx="598.5" cy="240.1" r="4" fill="#4A90D9" />
  <line x1="629.0" y1="233.7" x2="629.0" y2="234.8" stroke="#4A90D9" stroke-width="1" stroke-opacity="0.5" />
  <circle cx="629.0" cy="234.2" r="4" fill="#4A90D9" />
  <line x1="659.5" y1="232.9" x2="659.5" y2="236.8" stroke="#4A90D9" stroke-width="1" stroke-opacity="0.5" />
  <circle cx="659.5" cy="234.9" r="4" fill="#4A90D9" />
  <line x1="690.0" y1="49.9" x2="690.0" y2="50.1" stroke="#4A90D9" stroke-width="1" stroke-opacity="0.5" />
  <circle cx="690.0" cy="50.0" r="4" fill="#D94A4A" />
  <text x="80.0" y="294.0" text-anchor="end" font-family="&quot;Segoe UI&quot;, Arial, sans-serif" font-size="10" fill="#666666" transform="rotate(-45, 80.0, 294.0)">c77a77f</text>
  <text x="110.5" y="294.0" text-anchor="end" font-family="&quot;Segoe UI&quot;, Arial, sans-serif" font-size="10" fill="#666666" transform="rotate(-45, 110.5, 294.0)">46740b7</text>
  <text x="141.0" y="294.0" text-anchor="end" font-family="&quot;Segoe UI&quot;, Arial, sans-serif" font-size="10" fill="#666666" transform="rotate(-45, 141.0, 294.0)">25e56da</text>
  <text x="171.5" y="294.0" text-anchor="end" font-family="&quot;Segoe UI&quot;, Arial, sans-serif" font-size="10" fill="#666666" transform="rotate(-45, 171.5, 294.0)">56e6b73</text>
  <text x="202.0" y="294.0" text-anchor="end" font-family="&quot;Segoe UI&quot;, Arial, sans-serif" font-size="10" fill="#666666" transform="rotate(-45, 202.0, 294.0)">efff82c</text>
  <text x="232.5" y="294.0" text-anchor="end" font-family="&quot;Segoe UI&quot;, Arial, sans-serif" font-size="10" fill="#666666" transform="rotate(-45, 232.5, 294.0)">a6ee02e</text>
  <text x="263.0" y="294.0" text-anchor="end" font-family="&quot;Segoe UI&quot;, Arial, sans-serif" font-size="10" fill="#666666" transform="rotate(-45, 263.0, 294.0)">daca6e7</text>
  <text x="293.5" y="294.0" text-anchor="end" font-family="&quot;Segoe UI&quot;, Arial, sans-serif" font-size="10" fill="#666666" transform="rotate(-45, 293.5, 294.0)">de6a661</text>
  <text x="324.0" y="294.0" text-anchor="end" font-family="&quot;Segoe UI&quot;, Arial, sans-serif" font-size="10" fill="#666666" transform="rotate(-45, 324.0, 294.0)">c1e754d</text>
  <text x="354.5" y="294.0" text-anchor="end" font-family="&quot;Segoe UI&quot;, Arial, sans-serif" font-size="10" fill="#666666" transform="rotate(-45, 354.5, 294.0)">3d7678e</text>
  <text x="385.0" y="294.0" text-anchor="end" font-family="&quot;Segoe UI&quot;, Arial, sans-serif" font-size="10" fill="#666666" transform="rotate(-45, 385.0, 294.0)">28c1510</text>
  <text x="415.5" y="294.0" text-anchor="end" font-family="&quot;Segoe UI&quot;, Arial, sans-serif" font-size="10" fill="#666666" transform="rotate(-45, 415.5, 294.0)">8f4c3fb</text>
  <text x="446.0" y="294.0" text-anchor="end" font-family="&quot;Segoe UI&quot;, Arial, sans-serif" font-size="10" fill="#666666" transform="rotate(-45, 446.0, 294.0)">949195e</text>
  <text x="476.5" y="294.0" text-anchor="end" font-family="&quot;Segoe UI&quot;, Arial, sans-serif" font-size="10" fill="#666666" transform="rotate(-45, 476.5, 294.0)">eaf2f3d</text>
  <text x="507.0" y="294.0" text-anchor="end" font-family="&quot;Segoe UI&quot;, Arial, sans-serif" font-size="10" fill="#666666" transform="rotate(-45, 507.0, 294.0)">3b941bb</text>
  <text x="537.5" y="294.0" text-anchor="end" font-family="&quot;Segoe UI&quot;, Arial, sans-serif" font-size="10" fill="#666666" transform="rotate(-45, 537.5, 294.0)">e4d8090</text>
  <text x="568.0" y="294.0" text-anchor="end" font-family="&quot;Segoe UI&quot;, Arial, sans-serif" font-size="10" fill="#666666" transform="rotate(-45, 568.0, 294.0)">5358aa1</text>
  <text x="598.5" y="294.0" text-anchor="end" font-family="&quot;Segoe UI&quot;, Arial, sans-serif" font-size="10" fill="#666666" transform="rotate(-45, 598.5, 294.0)">14bd129</text>
  <text x="629.0" y="294.0" text-anchor="end" font-family="&quot;Segoe UI&quot;, Arial, sans-serif" font-size="10" fill="#666666" transform="rotate(-45, 629.0, 294.0)">4c584e1</text>
  <text x="659.5" y="294.0" text-anchor="end" font-family="&quot;Segoe UI&quot;, Arial, sans-serif" font-size="10" fill="#666666" transform="rotate(-45, 659.5, 294.0)">4c584e1</text>
  <text x="690.0" y="294.0" text-anchor="end" font-family="&quot;Segoe UI&quot;, Arial, sans-serif" font-size="10" fill="#666666" transform="rotate(-45, 690.0, 294.0)">cb6caaf</text>
  <line x1="80" y1="40" x2="80" y2="280" stroke="#333333" stroke-width="1" />
  <line x1="80" y1="280" x2="690" y2="280" stroke="#333333" stroke-width="1" />
</svg>