<?xml version='1.0' encoding='utf-8'?>
<svg xmlns="http://www.w3.org/2000/svg" width="720" height="360" viewBox="0 0 720 360">
  <rect x="0" y="0" width="720" height="360" fill="#FFFFFF" />
  <text x="360.0" y="24.0" text-anchor="middle" font-family="&quot;Segoe UI&quot;, Arial, sans-serif" font-size="14" font-weight="bold" fill="#333333">EcsQueryBenchmarks.ExactQuery_Count</text>
  <line x1="80" y1="280.0" x2="690" y2="280.0" stroke="#E0E0E0" stroke-width="1" />
  <line x1="80" y1="232.0" x2="690" y2="232.0" stroke="#E0E0E0" stroke-width="1" />
  <line x1="80" y1="184.0" x2="690" y2="184.0" stroke="#E0E0E0" stroke-width="1" />
  <line x1="80" y1="136.0" x2="690" y2="136.0" stroke="#E0E0E0" stroke-width="1" />
  <line x1="80" y1="88.0" x2="690" y2="88.0" stroke="#E0E0E0" stroke-width="1" />
  <line x1="80" y1="40.0" x2="690" y2="40.0" stroke="#E0E0E0" stroke-width="1" />
  <text x="72" y="284.0" text-anchor="end" font-family="&quot;Segoe UI&quot;, Arial, sans-serif" font-size="11" fill="#666666">0.00</text>
  <text x="72" y="236.0" text-anchor="end" font-family="&quot;Segoe UI&quot;, Arial, sans-serif" font-size="11" fill="#666666">50.00</text>
  <text x="72" y="188.0" text-anchor="end" font-family="&quot;Segoe UI&quot;, Arial, sans-serif" font-size="11" fill="#666666">100.00</text>
  <text x="72" y="140.0" text-anchor="end" font-family="&quot;Segoe UI&quot;, Arial, sans-serif" font-size="11" fill="#666666">150.00</text>
  <text x="72" y="92.0" text-anchor="end" font-family="&quot;Segoe UI&quot;, Arial, sans-serif" font-size="11" fill="#666666">200.00</text>
  <text x="72" y="44.0" text-anchor="end" font-family="&quot;Segoe UI&quot;, Arial, sans-serif" font-size="11" fill="#666666">250.00</text>
  <text x="72" y="32" text-anchor="end" font-family="&quot;Segoe UI&quot;, Arial, sans-serif" font-size="11" fill="#999999">(us)</text>
  <polyline points="80.0,232.3 167.1,233.4 254.3,236.3 341.4,233.6 428.6,233.9 515.7,235.6 602.9,237.7 690.0,47.2" fill="none" stroke="#4A90D9" stroke-width="2" />
  <line x1="80.0" y1="230.9" x2="80.0" y2="233.6" stroke="#4A90D9" stroke-width="1" stroke-opacity="0.5" />
  <circle cx="80.0" cy="232.3" r="4" fill="#4A90D9" />
  <line x1="167.1" y1="231.1" x2="167.1" y2="235.7" stroke="#4A90D9" stroke-width="1" stroke-opacity="0.5" />
  <circle cx="167.1" cy="233.4" r="4" fill="#4A90D9" />
  <line x1="254.3" y1="235.7" x2="254.3" y2="237.0" stroke="#4A90D9" stroke-width="1" stroke-opacity="0.5" />
  <circle cx="254.3" cy="236.3" r="4" fill="#4A90D9" />
  <line x1="341.4" y1="230.9" x2="341.4" y2="236.3" stroke="#4A90D9" stroke-width="1" stroke-opacity="0.5" />
  <circle cx="341.4" cy="233.6" r="4" fill="#4A90D9" />
  <line x1="428.6" y1="231.0" x2="428.6" y2="236.8" stroke="#4A90D9" stroke-width="1" stroke-opacity="0.5" />
  <circle cx="428.6" cy="233.9" r="4" fill="#4A90D9" />
  <line x1="515.7" y1="234.3" x2="515.7" y2="236.9" stroke="#4A90D9" stroke-width="1" stroke-opacity="0.5" />
  <circle cx="515.7" cy="235.6" r="4" fill="#4A90D9" />
  <line x1="602.9" y1="236.9" x2="602.9" y2="238.5" stroke="#4A90D9" stroke-width="1" stroke-opacity="0.5" />
  <circle cx="602.9" cy="237.7" r="4" fill="#4A90D9" />
  <line x1="690.0" y1="47.1" x2="690.0" y2="47.3" stroke="#4A90D9" stroke-width="1" stroke-opacity="0.5" />
  <circle cx="690.0" cy="47.2" r="4" fill="#D94A4A" />
  <text x="80.0" y="294.0" text-anchor="end" font-family="&quot;Segoe UI&quot;, Arial, sans-serif" font-size="10" fill="#666666" transform="rotate(-45, 80.0, 294.0)">eaf2f3d</text>
  <text x="167.1" y="294.0" text-anchor="end" font-family="&quot;Segoe UI&quot;, Arial, sans-serif" font-size="10" fill="#666666" transform="rotate(-45, 167.1, 294.0)">3b941bb</text>
  <text x="254.3" y="294.0" text-anchor="end" font-family="&quot;Segoe UI&quot;, Arial, sans-serif" font-size="10" fill="#666666" transform="rotate(-45, 254.3, 294.0)">e4d8090</text>
  <text x="341.4" y="294.0" text-anchor="end" font-family="&quot;Segoe UI&quot;, Arial, sans-serif" font-size="10" fill="#666666" transform="rotate(-45, 341.4, 294.0)">5358aa1</text>
  <text x="428.6" y="294.0" text-anchor="end" font-family="&quot;Segoe UI&quot;, Arial, sans-serif" font-size="10" fill="#666666" transform="rotate(-45, 428.6, 294.0)">14bd129</text>
  <text x="515.7" y="294.0" text-anchor="end" font-family="&quot;Segoe UI&quot;, Arial, sans-serif" font-size="10" fill="#666666" transform="rotate(-45, 515.7, 294.0)">4c584e1</text>
  <text x="602.9" y="294.0" text-anchor="end" font-family="&quot;Segoe UI&quot;, Arial, sans-serif" font-size="10" fill="#666666" transform="rotate(-45, 602.9, 294.0)">4c584e1</text>
  <text x="690.0" y="294.0" text-anchor="end" font-family="&quot;Segoe UI&quot;, Arial, sans-serif" font-size="10" fill="#666666" transform="rotate(-45, 690.0, 294.0)">cb6caaf</text>
  <line x1="80" y1="40" x2="80" y2="280" stroke="#333333" stroke-width="1" />
  <line x1="80" y1="280" x2="690" y2="280" stroke="#333333" stroke-width="1" />
</svg>