<?xml version='1.0' encoding='utf-8'?>
<svg xmlns="http://www.w3.org/2000/svg" width="720" height="360" viewBox="0 0 720 360">
  <rect x="0" y="0" width="720" height="360" fill="#FFFFFF" />
  <text x="360.0" y="24.0" text-anchor="middle" font-family="&quot;Segoe UI&quot;, Arial, sans-serif" font-size="14" font-weight="bold" fill="#333333">IndexLookupBenchmarks.DeleteEntity_SingleComponent</text>
  <line x1="80" y1="280.0" x2="690" y2="280.0" stroke="#E0E0E0" stroke-width="1" />
  <line x1="80" y1="245.71428571428572" x2="690" y2="245.71428571428572" stroke="#E0E0E0" stroke-width="1" />
  <line x1="80" y1="211.42857142857144" x2="690" y2="211.42857142857144" stroke="#E0E0E0" stroke-width="1" />
  <line x1="80" y1="177.14285714285717" x2="690" y2="177.14285714285717" stroke="#E0E0E0" stroke-width="1" />
  <line x1="80" y1="142.85714285714286" x2="690" y2="142.85714285714286" stroke="#E0E0E0" stroke-width="1" />
  <line x1="80" y1="108.57142857142856" x2="690" y2="108.57142857142856" stroke="#E0E0E0" stroke-width="1" />
  <line x1="80" y1="74.2857142857143" x2="690" y2="74.2857142857143" stroke="#E0E0E0" stroke-width="1" />
  <line x1="80" y1="40.0" x2="690" y2="40.0" stroke="#E0E0E0" stroke-width="1" />
  <text x="72" y="284.0" text-anchor="end" font-family="&quot;Segoe UI&quot;, Arial, sans-serif" font-size="11" fill="#666666">0.00</text>
  <text x="72" y="249.71428571428572" text-anchor="end" font-family="&quot;Segoe UI&quot;, Arial, sans-serif" font-size="11" fill="#666666">5.00</text>
  <text x="72" y="215.42857142857144" text-anchor="end" font-family="&quot;Segoe UI&quot;, Arial, sans-serif" font-size="11" fill="#666666">10.00</text>
  <text x="72" y="181.14285714285717" text-anchor="end" font-family="&quot;Segoe UI&quot;, Arial, sans-serif" font-size="11" fill="#666666">15.00</text>
  <text x="72" y="146.85714285714286" text-anchor="end" font-family="&quot;Segoe UI&quot;, Arial, sans-serif" font-size="11" fill="#666666">20.00</text>
  <text x="72" y="112.57142857142856" text-anchor="end" font-family="&quot;Segoe UI&quot;, Arial, sans-serif" font-size="11" fill="#666666">25.00</text>
  <text x="72" y="78.2857142857143" text-anchor="end" font-family="&quot;Segoe UI&quot;, Arial, sans-serif" font-size="11" fill="#666666">30.00</text>
  <text x="72" y="44.0" text-anchor="end" font-family="&quot;Segoe UI&quot;, Arial, sans-serif" font-size="11" fill="#666666">35.00</text>
  <text x="72" y="32" text-anchor="end" font-family="&quot;Segoe UI&quot;, Arial, sans-serif" font-size="11" fill="#999999">(us)</text>
  <polyline points="80.0,267.9 110.5,111.7 141.0,127.4 171.5,102.3 202.0,82.4 232.5,257.8 263.0,255.6 293.5,256.9 324.0,258.4 354.5,262.8 385.0,262.1 415.5,260.6 446.0,236.8 476.5,232.2 507.0,231.6 537.5,235.3 568.0,235.5 598.5,224.4 629.0,225.2 659.5,233.8 690.0,209.2" fill="none" stroke="#4A90D9" stroke-width="2" />
  <line x1="80.0" y1="267.6" x2="80.0" y2="268.2" stroke="#4A90D9" stroke-width="1" stroke-opacity="0.5" />
  <circle cx="80.0" cy="267.9" r="4" fill="#4A90D9" />
  <line x1="110.5" y1="107.7" x2="110.5" y2="115.7" stroke="#4A90D9" stroke-width="1" stroke-opacity="0.5" />
  <circle cx="110.5" cy="111.7" r="4" fill="#4A90D9" />
  <line x1="141.0" y1="123.6" x2="141.0" y2="131.2" stroke="#4A90D9" stroke-width="1" stroke-opacity="0.5" />
  <circle cx="141.0" cy="127.4" r="4" fill="#4A90D9" />
  <line x1="171.5" y1="100.0" x2="171.5" y2="104.7" stroke="#4A90D9" stroke-width="1" stroke-opacity="0.5" />
  <circle cx="171.5" cy="102.3" r="4" fill="#4A90D9" />
  <line x1="202.0" y1="66.3" x2="202.0" y2="98.5" stroke="#4A90D9" stroke-width="1" stroke-opacity="0.5" />
  <circle cx="202.0" cy="82.4" r="4" fill="#4A90D9" />
  <line x1="232.5" y1="257.2" x2="232.5" y2="258.3" stroke="#4A90D9" stroke-width="1" stroke-opacity="0.5" />
  <circle cx="232.5" cy="257.8" r="4" fill="#4A90D9" />
  <line x1="263.0" y1="253.3" x2="263.0" y2="258.0" stroke="#4A90D9" stroke-width="1" stroke-opacity="0.5" />
  <circle cx="263.0" cy="255.6" r="4" fill="#4A90D9" />
  <line x1="293.5" y1="255.7" x2="293.5" y2="258.1" stroke="#4A90D9" stroke-width="1" stroke-opacity="0.5" />
  <circle cx="293.5" cy="256.9" r="4" fill="#4A90D9" />
  <line x1="324.0" y1="258.2" x2="324.0" y2="258.7" stroke="#4A90D9" stroke-width="1" stroke-opacity="0.5" />
  <circle cx="324.0" cy="258.4" r="4" fill="#4A90D9" />
  <line x1="354.5" y1="262.7" x2="354.5" y2="262.9" stroke="#4A90D9" stroke-width="1" stroke-opacity="0.5" />
  <circle cx="354.5" cy="262.8" r="4" fill="#4A90D9" />
  <line x1="385.0" y1="261.3" x2="385.0" y2="262.8" stroke="#4A90D9" stroke-width="1" stroke-opacity="0.5" />
  <circle cx="385.0" cy="262.1" r="4" fill="#4A90D9" />
  <line x1="415.5" y1="259.9" x2="415.5" y2="261.2" stroke="#4A90D9" stroke-width="1" stroke-opacity="0.5" />
  <circle cx="415.5" cy="260.6" r="4" fill="#4A90D9" />
  <line x1="446.0" y1="230.5" x2="446.0" y2="243.1" stroke="#4A90D9" stroke-width="1" stroke-opacity="0.5" />
  <circle cx="446.0" cy="236.8" r="4" fill="#4A90D9" />
  <line x1="476.5" y1="225.1" x2="476.5" y2="239.3" stroke="#4A90D9" stroke-width="1" stroke-opacity="0.5" />
  <circle cx="476.5" cy="232.2" r="4" fill="#4A90D9" />
  <line x1="507.0" y1="226.7" x2="507.0" y2="236.6" stroke="#4A90D9" stroke-width="1" stroke-opacity="0.5" />
  <circle cx="507.0" cy="231.6" r="4" fill="#4A90D9" />
  <line x1="537.5" y1="229.4" x2="537.5" y2="241.2" stroke="#4A90D9" stroke-width="1" stroke-opacity="0.5" />
  <circle cx="537.5" cy="235.3" r="4" fill="#4A90D9" />
  <line x1="568.0" y1="232.1" x2="568.0" y2="238.9" stroke="#4A90D9" stroke-width="1" stroke-opacity="0.5" />
  <circle cx="568.0" cy="235.5" r="4" fill="#4A90D9" />
  <line x1="598.5" y1="217.9" x2="598.5" y2="230.9" stroke="#4A90D9" stroke-width="1" stroke-opacity="0.5" />
  <circle cx="598.5" cy="224.4" r="4" fill="#4A90D9" />
  <line x1="629.0" y1="217.8" x2="629.0" y2="232.7" stroke="#4A90D9" stroke-width="1" stroke-opacity="0.5" />
  <circle cx="629.0" cy="225.2" r="4" fill="#4A90D9" />
  <line x1="659.5" y1="228.7" x2="659.5" y2="238.9" stroke="#4A90D9" stroke-width="1" stroke-opacity="0.5" />
  <circle cx="659.5" cy="233.8" r="4" fill="#4A90D9" />
  <line x1="690.0" y1="208.1" x2="690.0" y2="210.3" stroke="#4A90D9" stroke-width="1" stroke-opacity="0.5" />
  <circle cx="690.0" cy="209.2" r="4" fill="#D94A4A" />
  <text x="80.0" y="294.0" text-anchor="end" font-family="&quot;Segoe UI&quot;, Arial, sans-serif" font-size="10" fill="#666666" transform="rotate(-45, 80.0, 294.0)">c77a77f</text>
  <text x="110.5" y="294.0" text-anchor="end" font-family="&quot;Segoe UI&quot;, Arial, sans-serif" font-size="10" fill="#666666" transform="rotate(-45, 110.5, 294.0)">46740b7</text>
  <text x="141.0" y="294.0" text-anchor="end" font-family="&quot;Segoe UI&quot;, Arial, sans-serif" font-size="10" fill="#666666" transform="rotate(-45, 141.0, 294.0)">25e56da</text>
  <text x="171.5" y="294.0" text-anchor="end" font-family="&quot;Segoe UI&quot;, Arial, sans-serif" font-size="10" fill="#666666" transform="rotate(-45, 171.5, 294.0)">56e6b73</text>
  <text x="202.0" y="294.0" text-anchor="end" font-family="&quot;Segoe UI&quot;, Arial, sans-serif" font-size="10" fill="#666666" transform="rotate(-45, 202.0, 294.0)">efff82c</text>
  <text x="232.5" y="294.0" text-anchor="end" font-family="&quot;Segoe UI&quot;, Arial, sans-serif" font-size="10" fill="#666666" transform="rotate(-45, 232.5, 294.0)">a6ee02e</text>
  <text x="263.0" y="294.0" text-anchor="end" font-family="&quot;Segoe UI&quot;, Arial, sans-serif" font-size="10" fill="#666666" transform="rotate(-45, 263.0, 294.0)">daca6e7</text>
  <text x="293.5" y="294.0" text-anchor="end" font-family="&quot;Segoe UI&quot;, Arial, sans-serif" font-size="10" fill="#666666" transform="rotate(-45, 293.5, 294.0)">de6a661</text>
  <text x="324.0" y="294.0" text-anchor="end" font-family="&quot;Segoe UI&quot;, Arial, sans-serif" font-size="10" fill="#666666" transform="rotate(-45, 324.0, 294.0)">c1e754d</text>
  <text x="354.5" y="294.0" text-anchor="end" font-family="&quot;Segoe UI&quot;, Arial, sans-serif" font-size="10" fill="#666666" transform="rotate(-45, 354.5, 294.0)">3d7678e</text>
  <text x="385.0" y="294.0" text-anchor="end" font-family="&quot;Segoe UI&quot;, Arial, sans-serif" font-size="10" fill="#666666" transform="rotate(-45, 385.0, 294.0)">28c1510</text>
  <text x="415.5" y="294.0" text-anchor="end" font-family="&quot;Segoe UI&quot;, Arial, sans-serif" font-size="10" fill="#666666" transform="rotate(-45, 415.5, 294.0)">8f4c3fb</text>
  <text x="446.0" y="294.0" text-anchor="end" font-family="&quot;Segoe UI&quot;, Arial, sans-serif" font-size="10" fill="#666666" transform="rotate(-45, 446.0, 294.0)">949195e</text>
  <text x="476.5" y="294.0" text-anchor="end" font-family="&quot;Segoe UI&quot;, Arial, sans-serif" font-size="10" fill="#666666" transform="rotate(-45, 476.5, 294.0)">eaf2f3d</text>
  <text x="507.0" y="294.0" text-anchor="end" font-family="&quot;Segoe UI&quot;, Arial, sans-serif" font-size="10" fill="#666666" transform="rotate(-45, 507.0, 294.0)">3b941bb</text>
  <text x="537.5" y="294.0" text-anchor="end" font-family="&quot;Segoe UI&quot;, Arial, sans-serif" font-size="10" fill="#666666" transform="rotate(-45, 537.5, 294.0)">e4d8090</text>
  <text x="568.0" y="294.0" text-anchor="end" font-family="&quot;Segoe UI&quot;, Arial, sans-serif" font-size="10" fill="#666666" transform="rotate(-45, 568.0, 294.0)">5358aa1</text>
  <text x="598.5" y="294.0" text-anchor="end" font-family="&quot;Segoe UI&quot;, Arial, sans-serif" font-size="10" fill="#666666" transform="rotate(-45, 598.5, 294.0)">14bd129</text>
  <text x="629.0" y="294.0" text-anchor="end" font-family="&quot;Segoe UI&quot;, Arial, sans-serif" font-size="10" fill="#666666" transform="rotate(-45, 629.0, 294.0)">4c584e1</text>
  <text x="659.5" y="294.0" text-anchor="end" font-family="&quot;Segoe UI&quot;, Arial, sans-serif" font-size="10" fill="#666666" transform="rotate(-45, 659.5, 294.0)">4c584e1</text>
  <text x="690.0" y="294.0" text-anchor="end" font-family="&quot;Segoe UI&quot;, Arial, sans-serif" font-size="10" fill="#666666" transform="rotate(-45, 690.0, 294.0)">cb6caaf</text>
  <line x1="80" y1="40" x2="80" y2="280" stroke="#333333" stroke-width="1" />
  <line x1="80" y1="280" x2="690" y2="280" stroke="#333333" stroke-width="1" />
</svg>