<?xml version='1.0' encoding='utf-8'?>
<svg xmlns="http://www.w3.org/2000/svg" width="720" height="360" viewBox="0 0 720 360">
  <rect x="0" y="0" width="720" height="360" fill="#FFFFFF" />
  <text x="360.0" y="24.0" text-anchor="middle" font-family="&quot;Segoe UI&quot;, Arial, sans-serif" font-size="14" font-weight="bold" fill="#333333">PagedMMFBenchmarks.CacheMiss</text>
  <line x1="80" y1="280.0" x2="690" y2="280.0" stroke="#E0E0E0" stroke-width="1" />
  <line x1="80" y1="232.0" x2="690" y2="232.0" stroke="#E0E0E0" stroke-width="1" />
  <line x1="80" y1="184.0" x2="690" y2="184.0" stroke="#E0E0E0" stroke-width="1" />
  <line x1="80" y1="136.0" x2="690" y2="136.0" stroke="#E0E0E0" stroke-width="1" />
  <line x1="80" y1="88.0" x2="690" y2="88.0" stroke="#E0E0E0" stroke-width="1" />
  <line x1="80" y1="40.0" x2="690" y2="40.0" stroke="#E0E0E0" stroke-width="1" />
  <text x="72" y="284.0" text-anchor="end" font-family="&quot;Segoe UI&quot;, Arial, sans-serif" font-size="11" fill="#666666">2.00</text>
  <text x="72" y="236.0" text-anchor="end" font-family="&quot;Segoe UI&quot;, Arial, sans-serif" font-size="11" fill="#666666">4.00</text>
  <text x="72" y="188.0" text-anchor="end" font-family="&quot;Segoe UI&quot;, Arial, sans-serif" font-size="11" fill="#666666">6.00</text>
  <text x="72" y="140.0" text-anchor="end" font-family="&quot;Segoe UI&quot;, Arial, sans-serif" font-size="11" fill="#666666">8.00</text>
  <text x="72" y="92.0" text-anchor="end" font-family="&quot;Segoe UI&quot;, Arial, sans-serif" font-size="11" fill="#666666">10.00</text>
  <text x="72" y="44.0" text-anchor="end" font-family="&quot;Segoe UI&quot;, Arial, sans-serif" font-size="11" fill="#666666">12.00</text>
  <text x="72" y="32" text-anchor="end" font-family="&quot;Segoe UI&quot;, Arial, sans-serif" font-size="11" fill="#999999">(ns)</text>
  <polyline points="80.0,212.1 110.5,227.1 141.0,237.8 171.5,224.8 202.0,214.3 232.5,192.8 263.0,209.3 293.5,159.1 324.0,217.9 354.5,229.5 385.0,224.5 415.5,166.6 446.0,143.1 476.5,207.4 507.0,134.0 537.5,144.6 568.0,147.7 598.5,173.1 629.0,100.8 659.5,213.4 690.0,42.9" fill="none" stroke="#4A90D9" stroke-width="2" />
  <line x1="80.0" y1="208.7" x2="80.0" y2="215.4" stroke="#4A90D9" stroke-width="1" stroke-opacity="0.5" />
  <circle cx="80.0" cy="212.1" r="4" fill="#4A90D9" />
  <line x1="110.5" y1="225.2" x2="110.5" y2="229.1" stroke="#4A90D9" stroke-width="1" stroke-opacity="0.5" />
  <circle cx="110.5" cy="227.1" r="4" fill="#4A90D9" />
  <line x1="141.0" y1="235.8" x2="141.0" y2="239.7" stroke="#4A90D9" stroke-width="1" stroke-opacity="0.5" />
  <circle cx="141.0" cy="237.8" r="4" fill="#4A90D9" />
  <line x1="171.5" y1="223.1" x2="171.5" y2="226.5" stroke="#4A90D9" stroke-width="1" stroke-opacity="0.5" />
  <circle cx="171.5" cy="224.8" r="4" fill="#4A90D9" />
  <line x1="202.0" y1="210.1" x2="202.0" y2="218.4" stroke="#4A90D9" stroke-width="1" stroke-opacity="0.5" />
  <circle cx="202.0" cy="214.3" r="4" fill="#4A90D9" />
  <line x1="232.5" y1="191.7" x2="232.5" y2="193.9" stroke="#4A90D9" stroke-width="1" stroke-opacity="0.5" />
  <circle cx="232.5" cy="192.8" r="4" fill="#4A90D9" />
  <line x1="263.0" y1="203.1" x2="263.0" y2="215.5" stroke="#4A90D9" stroke-width="1" stroke-opacity="0.5" />
  <circle cx="263.0" cy="209.3" r="4" fill="#4A90D9" />
  <line x1="293.5" y1="150.8" x2="293.5" y2="167.3" stroke="#4A90D9" stroke-width="1" stroke-opacity="0.5" />
  <circle cx="293.5" cy="159.1" r="4" fill="#4A90D9" />
  <line x1="324.0" y1="214.4" x2="324.0" y2="221.3" stroke="#4A90D9" stroke-width="1" stroke-opacity="0.5" />
  <circle cx="324.0" cy="217.9" r="4" fill="#4A90D9" />
  <line x1="354.5" y1="228.4" x2="354.5" y2="230.6" stroke="#4A90D9" stroke-width="1" stroke-opacity="0.5" />
  <circle cx="354.5" cy="229.5" r="4" fill="#4A90D9" />
  <line x1="385.0" y1="223.3" x2="385.0" y2="225.7" stroke="#4A90D9" stroke-width="1" stroke-opacity="0.5" />
  <circle cx="385.0" cy="224.5" r="4" fill="#4A90D9" />
  <line x1="415.5" y1="163.0" x2="415.5" y2="170.3" stroke="#4A90D9" stroke-width="1" stroke-opacity="0.5" />
  <circle cx="415.5" cy="166.6" r="4" fill="#4A90D9" />
  <line x1="446.0" y1="136.2" x2="446.0" y2="149.9" stroke="#4A90D9" stroke-width="1" stroke-opacity="0.5" />
  <circle cx="446.0" cy="143.1" r="4" fill="#4A90D9" />
  <line x1="476.5" y1="205.2" x2="476.5" y2="209.5" stroke="#4A90D9" stroke-width="1" stroke-opacity="0.5" />
  <circle cx="476.5" cy="207.4" r="4" fill="#4A90D9" />
  <line x1="507.0" y1="127.9" x2="507.0" y2="140.1" stroke="#4A90D9" stroke-width="1" stroke-opacity="0.5" />
  <circle cx="507.0" cy="134.0" r="4" fill="#4A90D9" />
  <line x1="537.5" y1="134.8" x2="537.5" y2="154.5" stroke="#4A90D9" stroke-width="1" stroke-opacity="0.5" />
  <circle cx="537.5" cy="144.6" r="4" fill="#4A90D9" />
  <line x1="568.0" y1="143.1" x2="568.0" y2="152.4" stroke="#4A90D9" stroke-width="1" stroke-opacity="0.5" />
  <circle cx="568.0" cy="147.7" r="4" fill="#4A90D9" />
  <line x1="598.5" y1="168.6" x2="598.5" y2="177.6" stroke="#4A90D9" stroke-width="1" stroke-opacity="0.5" />
  <circle cx="598.5" cy="173.1" r="4" fill="#4A90D9" />
  <line x1="629.0" y1="96.7" x2="629.0" y2="104.9" stroke="#4A90D9" stroke-width="1" stroke-opacity="0.5" />
  <circle cx="629.0" cy="100.8" r="4" fill="#4A90D9" />
  <line x1="659.5" y1="211.0" x2="659.5" y2="215.7" stroke="#4A90D9" stroke-width="1" stroke-opacity="0.5" />
  <circle cx="659.5" cy="213.4" r="4" fill="#4A90D9" />
  <line x1="690.0" y1="42.3" x2="690.0" y2="43.5" stroke="#4A90D9" stroke-width="1" stroke-opacity="0.5" />
  <circle cx="690.0" cy="42.9" r="4" fill="#D94A4A" />
  <text x="80.0" y="294.0" text-anchor="end" font-family="&quot;Segoe UI&quot;, Arial, sans-serif" font-size="10" fill="#666666" transform="rotate(-45, 80.0, 294.0)">c77a77f</text>
  <text x="110.5" y="294.0" text-anchor="end" font-family="&quot;Segoe UI&quot;, Arial, sans-serif" font-size="10" fill="#666666" transform="rotate(-45, 110.5, 294.0)">46740b7</text>
  <text x="141.0" y="294.0" text-anchor="end" font-family="&quot;Segoe UI&quot;, Arial, sans-serif" font-size="10" fill="#666666" transform="rotate(-45, 141.0, 294.0)">25e56da</text>
  <text x="171.5" y="294.0" text-anchor="end" font-family="&quot;Segoe UI&quot;, Arial, sans-serif" font-size="10" fill="#666666" transform="rotate(-45, 171.5, 294.0)">56e6b73</text>
  <text x="202.0" y="294.0" text-anchor="end" font-family="&quot;Segoe UI&quot;, Arial, sans-serif" font-size="10" fill="#666666" transform="rotate(-45, 202.0, 294.0)">efff82c</text>
  <text x="232.5" y="294.0" text-anchor="end" font-family="&quot;Segoe UI&quot;, Arial, sans-serif" font-size="10" fill="#666666" transform="rotate(-45, 232.5, 294.0)">a6ee02e</text>
  <text x="263.0" y="294.0" text-anchor="end" font-family="&quot;Segoe UI&quot;, Arial, sans-serif" font-size="10" fill="#666666" transform="rotate(-45, 263.0, 294.0)">daca6e7</text>
  <text x="293.5" y="294.0" text-anchor="end" font-family="&quot;Segoe UI&quot;, Arial, sans-serif" font-size="10" fill="#666666" transform="rotate(-45, 293.5, 294.0)">de6a661</text>
  <text x="324.0" y="294.0" text-anchor="end" font-family="&quot;Segoe UI&quot;, Arial, sans-serif" font-size="10" fill="#666666" transform="rotate(-45, 324.0, 294.0)">c1e754d</text>
  <text x="354.5" y="294.0" text-anchor="end" font-family="&quot;Segoe UI&quot;, Arial, sans-serif" font-size="10" fill="#666666" transform="rotate(-45, 354.5, 294.0)">3d7678e</text>
  <text x="385.0" y="294.0" text-anchor="end" font-family="&quot;Segoe UI&quot;, Arial, sans-serif" font-size="10" fill="#666666" transform="rotate(-45, 385.0, 294.0)">28c1510</text>
  <text x="415.5" y="294.0" text-anchor="end" font-family="&quot;Segoe UI&quot;, Arial, sans-serif" font-size="10" fill="#666666" transform="rotate(-45, 415.5, 294.0)">8f4c3fb</text>
  <text x="446.0" y="294.0" text-anchor="end" font-family="&quot;Segoe UI&quot;, Arial, sans-serif" font-size="10" fill="#666666" transform="rotate(-45, 446.0, 294.0)">949195e</text>
  <text x="476.5" y="294.0" text-anchor="end" font-family="&quot;Segoe UI&quot;, Arial, sans-serif" font-size="10" fill="#666666" transform="rotate(-45, 476.5, 294.0)">eaf2f3d</text>
  <text x="507.0" y="294.0" text-anchor="end" font-family="&quot;Segoe UI&quot;, Arial, sans-serif" font-size="10" fill="#666666" transform="rotate(-45, 507.0, 294.0)">3b941bb</text>
  <text x="537.5" y="294.0" text-anchor="end" font-family="&quot;Segoe UI&quot;, Arial, sans-serif" font-size="10" fill="#666666" transform="rotate(-45, 537.5, 294.0)">e4d8090</text>
  <text x="568.0" y="294.0" text-anchor="end" font-family="&quot;Segoe UI&quot;, Arial, sans-serif" font-size="10" fill="#666666" transform="rotate(-45, 568.0, 294.0)">5358aa1</text>
  <text x="598.5" y="294.0" text-anchor="end" font-family="&quot;Segoe UI&quot;, Arial, sans-serif" font-size="10" fill="#666666" transform="rotate(-45, 598.5, 294.0)">14bd129</text>
  <text x="629.0" y="294.0" text-anchor="end" font-family="&quot;Segoe UI&quot;, Arial, sans-serif" font-size="10" fill="#666666" transform="rotate(-45, 629.0, 294.0)">4c584e1</text>
  <text x="659.5" y="294.0" text-anchor="end" font-family="&quot;Segoe UI&quot;, Arial, sans-serif" font-size="10" fill="#666666" transform="rotate(-45, 659.5, 294.0)">4c584e1</text>
  <text x="690.0" y="294.0" text-anchor="end" font-family="&quot;Segoe UI&quot;, Arial, sans-serif" font-size="10" fill="#666666" transform="rotate(-45, 690.0, 294.0)">cb6caaf</text>
  <line x1="80" y1="40" x2="80" y2="280" stroke="#333333" stroke-width="1" />
  <line x1="80" y1="280" x2="690" y2="280" stroke="#333333" stroke-width="1" />
</svg>