<?xml version='1.0' encoding='utf-8'?>
<svg xmlns="http://www.w3.org/2000/svg" width="720" height="360" viewBox="0 0 720 360">
  <rect x="0" y="0" width="720" height="360" fill="#FFFFFF" />
  <text x="360.0" y="24.0" text-anchor="middle" font-family="&quot;Segoe UI&quot;, Arial, sans-serif" font-size="14" font-weight="bold" fill="#333333">SpawnBatchBenchmarks.SpawnBatch_SOA (EntityCount=1000)</text>
  <line x1="80" y1="280.0" x2="690" y2="280.0" stroke="#E0E0E0" stroke-width="1" />
  <line x1="80" y1="250.0" x2="690" y2="250.0" stroke="#E0E0E0" stroke-width="1" />
  <line x1="80" y1="220.0" x2="690" y2="220.0" stroke="#E0E0E0" stroke-width="1" />
  <line x1="80" y1="190.0" x2="690" y2="190.0" stroke="#E0E0E0" stroke-width="1" />
  <line x1="80" y1="160.0" x2="690" y2="160.0" stroke="#E0E0E0" stroke-width="1" />
  <line x1="80" y1="130.0" x2="690" y2="130.0" stroke="#E0E0E0" stroke-width="1" />
  <line x1="80" y1="100.0" x2="690" y2="100.0" stroke="#E0E0E0" stroke-width="1" />
  <line x1="80" y1="70.0" x2="690" y2="70.0" stroke="#E0E0E0" stroke-width="1" />
  <line x1="80" y1="40.0" x2="690" y2="40.0" stroke="#E0E0E0" stroke-width="1" />
  <text x="72" y="284.0" text-anchor="end" font-family="&quot;Segoe UI&quot;, Arial, sans-serif" font-size="11" fill="#666666">150.00</text>
  <text x="72" y="254.0" text-anchor="end" font-family="&quot;Segoe UI&quot;, Arial, sans-serif" font-size="11" fill="#666666">200.00</text>
  <text x="72" y="224.0" text-anchor="end" font-family="&quot;Segoe UI&quot;, Arial, sans-serif" font-size="11" fill="#666666">250.00</text>
  <text x="72" y="194.0" text-anchor="end" font-family="&quot;Segoe UI&quot;, Arial, sans-serif" font-size="11" fill="#666666">300.00</text>
  <text x="72" y="164.0" text-anchor="end" font-family="&quot;Segoe UI&quot;, Arial, sans-serif" font-size="11" fill="#666666">350.00</text>
  <text x="72" y="134.0" text-anchor="end" font-family="&quot;Segoe UI&quot;, Arial, sans-serif" font-size="11" fill="#666666">400.00</text>
  <text x="72" y="104.0" text-anchor="end" font-family="&quot;Segoe UI&quot;, Arial, sans-serif" font-size="11" fill="#666666">450.00</text>
  <text x="72" y="74.0" text-anchor="end" font-family="&quot;Segoe UI&quot;, Arial, sans-serif" font-size="11" fill="#666666">500.00</text>
  <text x="72" y="44.0" text-anchor="end" font-family="&quot;Segoe UI&quot;, Arial, sans-serif" font-size="11" fill="#666666">550.00</text>
  <text x="72" y="32" text-anchor="end" font-family="&quot;Segoe UI&quot;, Arial, sans-serif" font-size="11" fill="#999999">(us)</text>
  <polyline points="80.0,163.8 167.1,164.6 254.3,251.4 341.4,255.5 428.6,241.2 515.7,239.4 602.9,249.0 690.0,57.5" fill="none" stroke="#4A90D9" stroke-width="2" />
  <line x1="80.0" y1="160.5" x2="80.0" y2="167.0" stroke="#4A90D9" stroke-width="1" stroke-opacity="0.5" />
  <circle cx="80.0" cy="163.8" r="4" fill="#4A90D9" />
  <line x1="167.1" y1="161.3" x2="167.1" y2="167.9" stroke="#4A90D9" stroke-width="1" stroke-opacity="0.5" />
  <circle cx="167.1" cy="164.6" r="4" fill="#4A90D9" />
  <line x1="254.3" y1="247.2" x2="254.3" y2="255.6" stroke="#4A90D9" stroke-width="1" stroke-opacity="0.5" />
  <circle cx="254.3" cy="251.4" r="4" fill="#4A90D9" />
  <line x1="341.4" y1="253.5" x2="341.4" y2="257.5" stroke="#4A90D9" stroke-width="1" stroke-opacity="0.5" />
  <circle cx="341.4" cy="255.5" r="4" fill="#4A90D9" />
  <line x1="428.6" y1="238.8" x2="428.6" y2="243.7" stroke="#4A90D9" stroke-width="1" stroke-opacity="0.5" />
  <circle cx="428.6" cy="241.2" r="4" fill="#4A90D9" />
  <line x1="515.7" y1="237.8" x2="515.7" y2="240.9" stroke="#4A90D9" stroke-width="1" stroke-opacity="0.5" />
  <circle cx="515.7" cy="239.4" r="4" fill="#4A90D9" />
  <line x1="602.9" y1="245.7" x2="602.9" y2="252.3" stroke="#4A90D9" stroke-width="1" stroke-opacity="0.5" />
  <circle cx="602.9" cy="249.0" r="4" fill="#4A90D9" />
  <line x1="690.0" y1="55.7" x2="690.0" y2="59.3" stroke="#4A90D9" stroke-width="1" stroke-opacity="0.5" />
  <circle cx="690.0" cy="57.5" r="4" fill="#D94A4A" />
  <text x="80.0" y="294.0" text-anchor="end" font-family="&quot;Segoe UI&quot;, Arial, sans-serif" font-size="10" fill="#666666" transform="rotate(-45, 80.0, 294.0)">eaf2f3d</text>
  <text x="167.1" y="294.0" text-anchor="end" font-family="&quot;Segoe UI&quot;, Arial, sans-serif" font-size="10" fill="#666666" transform="rotate(-45, 167.1, 294.0)">3b941bb</text>
  <text x="254.3" y="294.0" text-anchor="end" font-family="&quot;Segoe UI&quot;, Arial, sans-serif" font-size="10" fill="#666666" transform="rotate(-45, 254.3, 294.0)">e4d8090</text>
  <text x="341.4" y="294.0" text-anchor="end" font-family="&quot;Segoe UI&quot;, Arial, sans-serif" font-size="10" fill="#666666" transform="rotate(-45, 341.4, 294.0)">5358aa1</text>
  <text x="428.6" y="294.0" text-anchor="end" font-family="&quot;Segoe UI&quot;, Arial, sans-serif" font-size="10" fill="#666666" transform="rotate(-45, 428.6, 294.0)">14bd129</text>
  <text x="515.7" y="294.0" text-anchor="end" font-family="&quot;Segoe UI&quot;, Arial, sans-serif" font-size="10" fill="#666666" transform="rotate(-45, 515.7, 294.0)">4c584e1</text>
  <text x="602.9" y="294.0" text-anchor="end" font-family="&quot;Segoe UI&quot;, Arial, sans-serif" font-size="10" fill="#666666" transform="rotate(-45, 602.9, 294.0)">4c584e1</text>
  <text x="690.0" y="294.0" text-anchor="end" font-family="&quot;Segoe UI&quot;, Arial, sans-serif" font-size="10" fill="#666666" transform="rotate(-45, 690.0, 294.0)">cb6caaf</text>
  <line x1="80" y1="40" x2="80" y2="280" stroke="#333333" stroke-width="1" />
  <line x1="80" y1="280" x2="690" y2="280" stroke="#333333" stroke-width="1" />
</svg>