<?xml version='1.0' encoding='utf-8'?>
<svg xmlns="http://www.w3.org/2000/svg" width="720" height="360" viewBox="0 0 720 360">
  <rect x="0" y="0" width="720" height="360" fill="#FFFFFF" />
  <text x="360.0" y="24.0" text-anchor="middle" font-family="&quot;Segoe UI&quot;, Arial, sans-serif" font-size="14" font-weight="bold" fill="#333333">TransactionBenchmarks.Transaction_BulkUpdate (EntityCount=100)</text>
  <line x1="80" y1="280.0" x2="690" y2="280.0" stroke="#E0E0E0" stroke-width="1" />
  <line x1="80" y1="240.0" x2="690" y2="240.0" stroke="#E0E0E0" stroke-width="1" />
  <line x1="80" y1="200.0" x2="690" y2="200.0" stroke="#E0E0E0" stroke-width="1" />
  <line x1="80" y1="160.0" x2="690" y2="160.0" stroke="#E0E0E0" stroke-width="1" />
  <line x1="80" y1="120.0" x2="690" y2="120.0" stroke="#E0E0E0" stroke-width="1" />
  <line x1="80" y1="80.0" x2="690" y2="80.0" stroke="#E0E0E0" stroke-width="1" />
  <line x1="80" y1="40.0" x2="690" y2="40.0" stroke="#E0E0E0" stroke-width="1" />
  <text x="72" y="284.0" text-anchor="end" font-family="&quot;Segoe UI&quot;, Arial, sans-serif" font-size="11" fill="#666666">40.00</text>
  <text x="72" y="244.0" text-anchor="end" font-family="&quot;Segoe UI&quot;, Arial, sans-serif" font-size="11" fill="#666666">60.00</text>
  <text x="72" y="204.0" text-anchor="end" font-family="&quot;Segoe UI&quot;, Arial, sans-serif" font-size="11" fill="#666666">80.00</text>
  <text x="72" y="164.0" text-anchor="end" font-family="&quot;Segoe UI&quot;, Arial, sans-serif" font-size="11" fill="#666666">100.00</text>
  <text x="72" y="124.0" text-anchor="end" font-family="&quot;Segoe UI&quot;, Arial, sans-serif" font-size="11" fill="#666666">120.00</text>
  <text x="72" y="84.0" text-anchor="end" font-family="&quot;Segoe UI&quot;, Arial, sans-serif" font-size="11" fill="#666666">140.00</text>
  <text x="72" y="44.0" text-anchor="end" font-family="&quot;Segoe UI&quot;, Arial, sans-serif" font-size="11" fill="#666666">160.00</text>
  <text x="72" y="32" text-anchor="end" font-family="&quot;Segoe UI&quot;, Arial, sans-serif" font-size="11" fill="#999999">(us)</text>
  <line x1="80" y1="200.0" x2="690" y2="200.0" stroke="#FFA500" stroke-width="1.5" stroke-dasharray="6,4" />
  <text x="686" y="196.0" text-anchor="end" font-family="&quot;Segoe UI&quot;, Arial, sans-serif" font-size="10" fill="#FFA500">target: 80.00 us</text>
  <polyline points="80.0,263.1 110.5,189.8 141.0,167.4 171.5,175.9 202.0,137.1 232.5,208.1 263.0,244.9 293.5,238.5 324.0,237.6 354.5,263.7 385.0,265.4 415.5,251.6 446.0,246.7 476.5,253.8 507.0,239.8 537.5,257.7 568.0,256.3 598.5,258.1 629.0,255.4 659.5,257.1 690.0,76.8" fill="none" stroke="#4A90D9" stroke-width="2" />
  <line x1="80.0" y1="261.8" x2="80.0" y2="264.5" stroke="#4A90D9" stroke-width="1" stroke-opacity="0.5" />
  <circle cx="80.0" cy="263.1" r="4" fill="#4A90D9" />
  <line x1="110.5" y1="182.5" x2="110.5" y2="197.1" stroke="#4A90D9" stroke-width="1" stroke-opacity="0.5" />
  <circle cx="110.5" cy="189.8" r="4" fill="#4A90D9" />
  <line x1="141.0" y1="140.9" x2="141.0" y2="193.8" stroke="#4A90D9" stroke-width="1" stroke-opacity="0.5" />
  <circle cx="141.0" cy="167.4" r="4" fill="#4A90D9" />
  <line x1="171.5" y1="171.6" x2="171.5" y2="180.2" stroke="#4A90D9" stroke-width="1" stroke-opacity="0.5" />
  <circle cx="171.5" cy="175.9" r="4" fill="#4A90D9" />
  <line x1="202.0" y1="135.6" x2="202.0" y2="138.7" stroke="#4A90D9" stroke-width="1" stroke-opacity="0.5" />
  <circle cx="202.0" cy="137.1" r="4" fill="#4A90D9" />
  <line x1="232.5" y1="189.6" x2="232.5" y2="226.6" stroke="#4A90D9" stroke-width="1" stroke-opacity="0.5" />
  <circle cx="232.5" cy="208.1" r="4" fill="#4A90D9" />
  <line x1="263.0" y1="242.3" x2="263.0" y2="247.5" stroke="#4A90D9" stroke-width="1" stroke-opacity="0.5" />
  <circle cx="263.0" cy="244.9" r="4" fill="#4A90D9" />
  <line x1="293.5" y1="234.7" x2="293.5" y2="242.4" stroke="#4A90D9" stroke-width="1" stroke-opacity="0.5" />
  <circle cx="293.5" cy="238.5" r="4" fill="#4A90D9" />
  <line x1="324.0" y1="235.8" x2="324.0" y2="239.3" stroke="#4A90D9" stroke-width="1" stroke-opacity="0.5" />
  <circle cx="324.0" cy="237.6" r="4" fill="#4A90D9" />
  <line x1="354.5" y1="263.0" x2="354.5" y2="264.4" stroke="#4A90D9" stroke-width="1" stroke-opacity="0.5" />
  <circle cx="354.5" cy="263.7" r="4" fill="#4A90D9" />
  <line x1="385.0" y1="264.1" x2="385.0" y2="266.7" stroke="#4A90D9" stroke-width="1" stroke-opacity="0.5" />
  <circle cx="385.0" cy="265.4" r="4" fill="#4A90D9" />
  <line x1="415.5" y1="249.8" x2="415.5" y2="253.5" stroke="#4A90D9" stroke-width="1" stroke-opacity="0.5" />
  <circle cx="415.5" cy="251.6" r="4" fill="#4A90D9" />
  <line x1="446.0" y1="241.0" x2="446.0" y2="252.4" stroke="#4A90D9" stroke-width="1" stroke-opacity="0.5" />
  <circle cx="446.0" cy="246.7" r="4" fill="#4A90D9" />
  <line x1="476.5" y1="251.6" x2="476.5" y2="256.0" stroke="#4A90D9" stroke-width="1" stroke-opacity="0.5" />
  <circle cx="476.5" cy="253.8" r="4" fill="#4A90D9" />
  <line x1="507.0" y1="237.8" x2="507.0" y2="241.7" stroke="#4A90D9" stroke-width="1" stroke-opacity="0.5" />
  <circle cx="507.0" cy="239.8" r="4" fill="#4A90D9" />
  <line x1="537.5" y1="255.0" x2="537.5" y2="260.3" stroke="#4A90D9" stroke-width="1" stroke-opacity="0.5" />
  <circle cx="537.5" cy="257.7" r="4" fill="#4A90D9" />
  <line x1="568.0" y1="250.5" x2="568.0" y2="262.1" stroke="#4A90D9" stroke-width="1" stroke-opacity="0.5" />
  <circle cx="568.0" cy="256.3" r="4" fill="#4A90D9" />
  <line x1="598.5" y1="249.2" x2="598.5" y2="267.0" stroke="#4A90D9" stroke-width="1" stroke-opacity="0.5" />
  <circle cx="598.5" cy="258.1" r="4" fill="#4A90D9" />
  <line x1="629.0" y1="250.4" x2="629.0" y2="260.4" stroke="#4A90D9" stroke-width="1" stroke-opacity="0.5" />
  <circle cx="629.0" cy="255.4" r="4" fill="#4A90D9" />
  <line x1="659.5" y1="254.3" x2="659.5" y2="259.8" stroke="#4A90D9" stroke-width="1" stroke-opacity="0.5" />
  <circle cx="659.5" cy="257.1" r="4" fill="#4A90D9" />
  <line x1="690.0" y1="70.4" x2="690.0" y2="83.2" stroke="#4A90D9" stroke-width="1" stroke-opacity="0.5" />
  <circle cx="690.0" cy="76.8" r="4" fill="#D94A4A" />
  <text x="80.0" y="294.0" text-anchor="end" font-family="&quot;Segoe UI&quot;, Arial, sans-serif" font-size="10" fill="#666666" transform="rotate(-45, 80.0, 294.0)">c77a77f</text>
  <text x="110.5" y="294.0" text-anchor="end" font-family="&quot;Segoe UI&quot;, Arial, sans-serif" font-size="10" fill="#666666" transform="rotate(-45, 110.5, 294.0)">46740b7</text>
  <text x="141.0" y="294.0" text-anchor="end" font-family="&quot;Segoe UI&quot;, Arial, sans-serif" font-size="10" fill="#666666" transform="rotate(-45, 141.0, 294.0)">25e56da</text>
  <text x="171.5" y="294.0" text-anchor="end" font-family="&quot;Segoe UI&quot;, Arial, sans-serif" font-size="10" fill="#666666" transform="rotate(-45, 171.5, 294.0)">56e6b73</text>
  <text x="202.0" y="294.0" text-anchor="end" font-family="&quot;Segoe UI&quot;, Arial, sans-serif" font-size="10" fill="#666666" transform="rotate(-45, 202.0, 294.0)">efff82c</text>
  <text x="232.5" y="294.0" text-anchor="end" font-family="&quot;Segoe UI&quot;, Arial, sans-serif" font-size="10" fill="#666666" transform="rotate(-45, 232.5, 294.0)">a6ee02e</text>
  <text x="263.0" y="294.0" text-anchor="end" font-family="&quot;Segoe UI&quot;, Arial, sans-serif" font-size="10" fill="#666666" transform="rotate(-45, 263.0, 294.0)">daca6e7</text>
  <text x="293.5" y="294.0" text-anchor="end" font-family="&quot;Segoe UI&quot;, Arial, sans-serif" font-size="10" fill="#666666" transform="rotate(-45, 293.5, 294.0)">de6a661</text>
  <text x="324.0" y="294.0" text-anchor="end" font-family="&quot;Segoe UI&quot;, Arial, sans-serif" font-size="10" fill="#666666" transform="rotate(-45, 324.0, 294.0)">c1e754d</text>
  <text x="354.5" y="294.0" text-anchor="end" font-family="&quot;Segoe UI&quot;, Arial, sans-serif" font-size="10" fill="#666666" transform="rotate(-45, 354.5, 294.0)">3d7678e</text>
  <text x="385.0" y="294.0" text-anchor="end" font-family="&quot;Segoe UI&quot;, Arial, sans-serif" font-size="10" fill="#666666" transform="rotate(-45, 385.0, 294.0)">28c1510</text>
  <text x="415.5" y="294.0" text-anchor="end" font-family="&quot;Segoe UI&quot;, Arial, sans-serif" font-size="10" fill="#666666" transform="rotate(-45, 415.5, 294.0)">8f4c3fb</text>
  <text x="446.0" y="294.0" text-anchor="end" font-family="&quot;Segoe UI&quot;, Arial, sans-serif" font-size="10" fill="#666666" transform="rotate(-45, 446.0, 294.0)">949195e</text>
  <text x="476.5" y="294.0" text-anchor="end" font-family="&quot;Segoe UI&quot;, Arial, sans-serif" font-size="10" fill="#666666" transform="rotate(-45, 476.5, 294.0)">eaf2f3d</text>
  <text x="507.0" y="294.0" text-anchor="end" font-family="&quot;Segoe UI&quot;, Arial, sans-serif" font-size="10" fill="#666666" transform="rotate(-45, 507.0, 294.0)">3b941bb</text>
  <text x="537.5" y="294.0" text-anchor="end" font-family="&quot;Segoe UI&quot;, Arial, sans-serif" font-size="10" fill="#666666" transform="rotate(-45, 537.5, 294.0)">e4d8090</text>
  <text x="568.0" y="294.0" text-anchor="end" font-family="&quot;Segoe UI&quot;, Arial, sans-serif" font-size="10" fill="#666666" transform="rotate(-45, 568.0, 294.0)">5358aa1</text>
  <text x="598.5" y="294.0" text-anchor="end" font-family="&quot;Segoe UI&quot;, Arial, sans-serif" font-size="10" fill="#666666" transform="rotate(-45, 598.5, 294.0)">14bd129</text>
  <text x="629.0" y="294.0" text-anchor="end" font-family="&quot;Segoe UI&quot;, Arial, sans-serif" font-size="10" fill="#666666" transform="rotate(-45, 629.0, 294.0)">4c584e1</text>
  <text x="659.5" y="294.0" text-anchor="end" font-family="&quot;Segoe UI&quot;, Arial, sans-serif" font-size="10" fill="#666666" transform="rotate(-45, 659.5, 294.0)">4c584e1</text>
  <text x="690.0" y="294.0" text-anchor="end" font-family="&quot;Segoe UI&quot;, Arial, sans-serif" font-size="10" fill="#666666" transform="rotate(-45, 690.0, 294.0)">cb6caaf</text>
  <line x1="80" y1="40" x2="80" y2="280" stroke="#333333" stroke-width="1" />
  <line x1="80" y1="280" x2="690" y2="280" stroke="#333333" stroke-width="1" />
</svg>